<svg id="Layer_1" enable-background="new 0 0 512 512" height="512" viewBox="0 0 512 512" width="512" xmlns="http://www.w3.org/2000/svg"><g><g><g><g id="XMLID_976_"><g id="XMLID_977_"><g id="XMLID_978_"><g id="XMLID_979_"><g id="XMLID_1055_"><g id="XMLID_1056_"><g id="XMLID_1057_"><g id="XMLID_1058_"><g id="XMLID_1059_"><g id="XMLID_1060_"><g id="XMLID_1061_"><g id="XMLID_1062_"><g id="XMLID_1158_"><g id="XMLID_1159_"><g id="XMLID_1160_"><circle cx="256" cy="256" fill="#514747" r="256"/></g></g></g></g></g></g></g></g></g></g></g></g></g></g></g></g></g><path d="m511.608 270.105-240.608-240.608-55.383 60.373 47.663 42.683-64.24 81.512 27.626 26.601-3.454 17.288-40.326 30.937 36.447 32.109-68.433 133.261 52.269 52.269c17.049 3.577 34.718 5.47 52.831 5.47 136.651 0 248.285-107.072 255.608-241.895z" fill="#2b2525"/><g><path d="m296.382 59.87h-25.382v-30.373h-30v30.373h-25.383v30h25.383v44.373h30v-44.373h25.382z" fill="#fdbf2d"/><g><g><path d="m296.38 59.87v30h-25.38v44.37h-15v-104.74h15v30.37z" fill="#fd9827"/></g></g><path d="m304.214 326.854-11.263-125.977h-73.902l-11.263 125.977c-.934 10.447-7.286 19.635-16.73 24.199-10.302 4.979-16.849 15.412-16.849 26.855v7.22h163.585v-7.22c0-11.442-6.546-21.876-16.849-26.855-9.443-4.564-15.796-13.752-16.729-24.199z" fill="#fdbf2d"/><path d="m337.79 377.91v7.22h-81.79v-184.25h36.95l1.18 13.19 3.16 35.38 3.53 39.44 3.39 37.96c.47 5.23 2.29 10.13 5.18 14.31 2.88 4.17 6.83 7.61 11.55 9.89 10.31 4.98 16.85 15.42 16.85 26.86z" fill="#fd9827"/><path d="m312.959 123.243h-113.919l-24.732 53.42 24.732 37.402h113.919l24.733-37.402z" fill="#fed940"/><path d="m337.69 176.66-24.73 37.41h-56.96v-90.83h56.96z" fill="#fdbf2d"/><path d="m182.886 249.449h146.227v39.443h-146.227z" fill="#fed940"/><path d="m256 249.45h73.11v39.44h-73.11z" fill="#fdbf2d"/><path d="m150.9 379.846h210.199v74.414h-210.199z" fill="#fed940"/><path d="m256 379.85h105.1v74.41h-105.1z" fill="#fdbf2d"/></g></g></svg>